<?xml version="1.0" encoding="UTF-8" standalone="no"?>
<!-- Created with Inkscape (http://www.inkscape.org/) -->

<svg
   xmlns:dc="http://purl.org/dc/elements/1.1/"
   xmlns:cc="http://creativecommons.org/ns#"
   xmlns:rdf="http://www.w3.org/1999/02/22-rdf-syntax-ns#"
   xmlns:svg="http://www.w3.org/2000/svg"
   xmlns="http://www.w3.org/2000/svg"
   xmlns:sodipodi="http://sodipodi.sourceforge.net/DTD/sodipodi-0.dtd"
   xmlns:inkscape="http://www.inkscape.org/namespaces/inkscape"
   width="32"
   height="32"
   id="svg2"
   version="1.1"
   inkscape:version="0.47 r22583"
   sodipodi:docname="Nieuw document 1">
  <defs
     id="defs4">
    <inkscape:perspective
       sodipodi:type="inkscape:persp3d"
       inkscape:vp_x="0 : 526.18109 : 1"
       inkscape:vp_y="0 : 1000 : 0"
       inkscape:vp_z="744.09448 : 526.18109 : 1"
       inkscape:persp3d-origin="372.04724 : 350.78739 : 1"
       id="perspective10" />
  </defs>
  <sodipodi:namedview
     id="base"
     pagecolor="#ffffff"
     bordercolor="#666666"
     borderopacity="1.0"
     inkscape:pageopacity="0.0"
     inkscape:pageshadow="2"
     inkscape:zoom="9.1436741"
     inkscape:cx="17.746994"
     inkscape:cy="14.704652"
     inkscape:document-units="px"
     inkscape:current-layer="layer1"
     showgrid="false"
     inkscape:window-width="1139"
     inkscape:window-height="739"
     inkscape:window-x="251"
     inkscape:window-y="47"
     inkscape:window-maximized="0" />
  <metadata
     id="metadata7">
    <rdf:RDF>
      <cc:Work
         rdf:about="">
        <dc:format>image/svg+xml</dc:format>
        <dc:type
           rdf:resource="http://purl.org/dc/dcmitype/StillImage" />
        <dc:title></dc:title>
      </cc:Work>
    </rdf:RDF>
  </metadata>
  <g
     inkscape:label="Laag 1"
     inkscape:groupmode="layer"
     id="layer1"
     transform="translate(0,-1020.3622)">
    <path
       sodipodi:type="arc"
       style="fill:none;stroke:#ea0000;stroke-width:0.5;stroke-miterlimit:4;stroke-opacity:1;stroke-dasharray:none;stroke-dashoffset:0"
       id="path2816"
       sodipodi:cx="126.11765"
       sodipodi:cy="116.38459"
       sodipodi:rx="1.8151261"
       sodipodi:ry="1.8823529"
       d="m 127.93278,116.38459 a 1.8151261,1.8823529 0 1 1 -3.63025,0 1.8151261,1.8823529 0 1 1 3.63025,0 z"
       transform="matrix(6.7989159,0,0,6.7989159,-841.21297,245.26185)" />
    <path
       style="fill:none;stroke:none"
       d="m 7.4135901,1027.7146 17.6733769,17.6731"
       id="path3596" />
    <path
       style="fill:#ea0000;fill-opacity:1;stroke:none"
       d="m 14.795516,1037.9224 -8.7592499,-8.7604 1.408939,-1.4087 1.409008,-1.4087 8.7965079,8.7964 8.796437,8.7965 -1.36631,1.3727 c -0.751484,0.7546 -1.402276,1.3727 -1.446197,1.3727 -0.04079,0 -4.021559,-3.9421 -8.839135,-8.7605 z"
       id="path3598" />
    <path
       style="fill:none;stroke:none"
       d="m 14.849363,1037.781 -8.6622289,-8.5965 1.333539,-1.3442 1.333608,-1.3434 8.7219239,8.7284 8.721989,8.7285 -1.252089,1.2122 c -0.688594,0.6663 -1.31559,1.2123 -1.393301,1.2123 -0.07751,0 -4.039236,-3.8686 -8.803441,-8.5973 z"
       id="path3600" />
    <path
       style="fill:none;stroke:none"
       d="m 14.688637,1047.8128 c -2.848137,-0.686 -4.146254,-1.3795 -5.9501419,-3.1812 -1.161595,-1.1592 -1.491818,-1.6052 -2.091075,-2.8242 -0.391617,-0.7962 -0.828311,-1.9275 -0.970953,-2.5143 -0.343345,-1.4121 -0.345385,-4.0691 -0.0036,-5.4568 0.273996,-1.1123 1.220133,-3.3036 1.426616,-3.3036 0.06867,0 3.5723549,3.4484 7.7861219,7.6624 l 7.661358,7.6624 -0.958239,0.5711 c -1.497529,0.8893 -3.11234,1.3434 -4.99564,1.4067 -0.879847,0 -1.736851,0 -1.904444,0 z"
       id="path3602" />
  </g>
</svg>
